<svg width="475" height="70" viewBox="0 0 475 70" fill="none" xmlns="http://www.w3.org/2000/svg">
<path d="M151.9 25.6C150.7 25.6 149.5 25.8 148.4 26.3C147.3 26.8 146.3 27.4 145.5 28.3V26H142V50.8H145.4V42.2C146.3 43 147.3 43.7 148.4 44.2C149.5 44.7 150.8 44.9 152 44.9C153.3 44.9 154.7 44.7 155.9 44.2C158.3 43.2 160.1 41.3 161.1 38.9C161.6 37.7 161.8 36.5 161.8 35.2C161.9 32.6 160.8 30.1 159 28.3C157.1 26.5 154.5 25.5 151.9 25.6ZM156.4 39.8C155.2 41 153.5 41.7 151.8 41.6C150.1 41.6 148.4 40.9 147.3 39.7C146.1 38.5 145.4 36.8 145.4 35C145.4 33.3 146.1 31.7 147.3 30.6C148.5 29.4 150.1 28.7 151.8 28.7C155.4 28.7 158.3 31.5 158.4 35.1C158.4 35.2 158.4 35.2 158.4 35.3C158.3 37 157.6 38.7 156.4 39.8ZM106.2 28.3C105.3 27.4 104.2 26.7 103 26.2C101.8 25.7 100.5 25.5 99.1 25.5C97.8 25.5 96.5 25.8 95.3 26.3C94.1 26.8 93 27.6 92.1 28.6C91.2 29.5 90.6 30.5 90.1 31.6C89.2 34 89.2 36.6 90.2 38.9C90.7 40.1 91.4 41.2 92.3 42.1C93.2 43 94.3 43.8 95.5 44.3C96.7 44.8 98 45 99.4 45C100.7 45 102 44.7 103.3 44.2C104.5 43.6 105.6 42.9 106.6 41.9C107.5 41 108.1 39.9 108.6 38.8C109.1 37.6 109.3 36.4 109.3 35.1C109.3 33.9 109 32.6 108.5 31.5C107.9 30.2 107.1 29.1 106.2 28.3ZM103.8 39.8C102.6 41 101 41.7 99.4 41.6C97.7 41.6 96.1 41 94.9 39.8C93.7 38.6 93 36.9 93.1 35.2C93 33.5 93.7 31.8 94.9 30.6C97.4 28.1 101.4 28.1 103.9 30.6C105.1 31.8 105.7 33.5 105.7 35.2C105.6 36.9 105 38.5 103.8 39.8ZM77.6 28.8C78.8 28.8 80 29.1 81 29.6C82 30.2 82.8 31.1 83.3 32.1H87.1C86.5 30.1 85.2 28.4 83.6 27.2C82 26 80 25.4 77.9 25.5C76.5 25.5 75.2 25.8 74 26.3C72.8 26.8 71.6 27.6 70.7 28.6C69.8 29.5 69.2 30.5 68.7 31.7C68.2 32.8 68 34 68 35.2C68 36.5 68.3 37.7 68.8 38.9C69.3 40 70 41.1 70.9 42C71.8 42.9 72.9 43.7 74.1 44.2C75.3 44.7 76.6 44.9 78 44.9C80 45 82.1 44.4 83.7 43.2C85.4 41.9 86.6 40.2 87.3 38.2H83.5C83 39.3 82.2 40.2 81.2 40.8C80.2 41.4 79.1 41.7 77.9 41.7C76.2 41.7 74.6 41.1 73.4 39.9C72.2 38.7 71.5 37 71.6 35.3C71.6 33.6 72.2 31.9 73.4 30.7C74.4 29.4 76 28.7 77.6 28.8ZM131.3 25.8C130.1 25.8 128.8 26 127.7 26.6C126.7 27.2 125.9 28 125.4 29C124.9 28 124.1 27.2 123.1 26.6C122 26.1 120.8 25.8 119.6 25.8C118.7 25.8 117.7 26 116.9 26.4C116.1 26.8 115.3 27.5 114.7 28.2V26H111.7V44.4H115V35C114.9 33.3 115.2 31.7 116 30.2C116.7 29.2 118 28.6 119.3 28.7C120.5 28.6 121.7 29.2 122.4 30.2C123.2 31.7 123.5 33.4 123.4 35.1V44.4H126.7V34.8C126.6 33.2 126.9 31.5 127.7 30.1C129.3 28.4 132 28.2 133.7 29.8C133.8 29.9 133.8 29.9 133.9 30C134.7 31.1 135.1 32.4 135 33.7V44.4H138.4V33.2C138.5 31.2 137.8 29.2 136.4 27.8C135.1 26.3 133.2 25.6 131.3 25.8ZM234.1 28.3C233.2 27.4 232.2 26.8 231.1 26.3C230 25.8 228.7 25.6 227.5 25.6C226.2 25.6 224.9 25.8 223.6 26.3C221.3 27.3 219.4 29.2 218.4 31.5C217.9 32.7 217.7 33.9 217.7 35.2C217.6 37.8 218.7 40.3 220.6 42.1C222.5 44 225.1 44.9 227.7 44.9C228.9 44.9 230.1 44.7 231.2 44.2C232.3 43.7 233.3 43.1 234.1 42.2V44.4H237.6V26H234.1V28.3ZM232.4 39.8C231.2 41 229.6 41.7 227.9 41.7C224.3 41.8 221.4 38.9 221.3 35.4C221.3 35.3 221.3 35.2 221.3 35.2C221.3 33.5 222 31.9 223.2 30.7C224.4 29.5 226.1 28.8 227.8 28.9C229.5 28.9 231.2 29.6 232.4 30.8C233.6 32 234.3 33.7 234.3 35.4C234.3 37 233.6 38.6 232.4 39.8ZM246.7 26.4C245.9 26.8 245.2 27.5 244.8 28.2V26H241.6V44.4H245V34.2C244.9 32.9 245.2 31.6 246 30.5C246.9 29.6 248.1 29.2 249.3 29.2V25.7C248.4 25.7 247.5 25.9 246.7 26.4ZM211.7 33.7L210.5 33.2C208.6 32.5 207.7 31.7 207.7 30.7C207.7 30.1 207.9 29.6 208.3 29.2C208.7 28.8 209.3 28.6 209.8 28.6C210.4 28.6 211 28.8 211.4 29.2C211.8 29.6 212.1 30.2 212.1 30.8H215.4C215.4 29.4 214.8 28 213.8 26.9C212.7 25.9 211.3 25.4 209.9 25.5C208.4 25.5 207 26 205.9 27.1C204.8 28.1 204.3 29.5 204.3 30.9C204.3 31.7 204.4 32.5 204.8 33.2C205.2 33.9 205.7 34.5 206.3 35C207.1 35.5 208 35.9 208.9 36.2C209.4 36.4 209.8 36.5 210.1 36.6C210.8 36.8 211.4 37.2 211.9 37.7C212.3 38.2 212.5 38.7 212.5 39.3C212.5 40 212.2 40.7 211.7 41.1C211.2 41.6 210.4 41.8 209.7 41.8C208.9 41.8 208.1 41.5 207.6 40.8C207 40.1 206.7 39.3 206.8 38.4H203.6C203.6 40.1 204.2 41.8 205.4 43.1C206.5 44.3 208.1 44.9 209.7 44.8C211.3 44.8 212.9 44.2 214 43.2C215.1 42.1 215.8 40.6 215.7 39.1C215.8 37.9 215.4 36.7 214.8 35.7C214 34.8 212.9 34 211.7 33.7ZM181.3 29C180.5 28.2 179.5 27.4 178.5 26.9C177.6 26.4 176.6 26 175.6 25.8C174 25.5 172.3 25.5 170.8 26C169.2 26.4 167.8 27.3 166.7 28.4C165.7 29.3 165 30.4 164.5 31.6C164 32.8 163.8 34.1 163.9 35.4C163.9 36.6 164.2 37.8 164.7 38.9C165.8 41.2 167.7 43.1 170.1 44C171.3 44.5 172.6 44.8 173.9 44.8C175.2 44.8 176.5 44.6 177.7 44.2C178.7 43.8 179.5 43.3 180.3 42.6V37.9C180.3 37.8 180.3 37.6 180.1 37.8C179.7 38.5 179.1 39.1 178.5 39.7C177.4 40.7 176 41.4 174.6 41.5C173.1 41.6 171.6 41.2 170.3 40.3L181.7 29.3L181.3 29ZM168.2 38.1C167.4 36.9 167.1 35.5 167.3 34.1C167.5 32.7 168.1 31.5 169.1 30.5C170.1 29.5 171.3 28.9 172.7 28.8C174.2 28.7 175.6 29 176.8 29.8L168.2 38.1ZM193.1 25.7C192.1 25.7 191.1 25.9 190.2 26.3C189.3 26.7 188.5 27.3 187.8 28.1V26H184.5V44.4H188V36C188 33.4 188.4 31.6 189.1 30.5C190.9 28.4 194.1 28.3 196.2 30.1L196.3 30.2C197.2 31.5 197.6 33 197.4 34.5V44.3H200.8V33.9C201 31.7 200.2 29.5 198.8 27.8C197.4 26.3 195.3 25.5 193.1 25.7ZM305.9 9.5H302.3V26H300V9.5H296.9V7.6H300V5.9C300 2.7 300.9 0.5 304.5 0.5C305.1 0.5 305.8 0.5 306.4 0.6V2.5C305.9 2.4 305.3 2.3 304.8 2.3C302.3 2.3 302.4 3.9 302.3 5.9V7.5H305.9V9.5ZM322.9 26H320.8V22.7H320.7C319.5 25.1 317 26.6 314.4 26.6C309.8 26.6 307.9 23.9 307.9 19.6V7.6H310.2V19.6C310.3 22.9 311.6 24.7 315.1 24.7C319 24.7 320.6 21.1 320.6 17.3V7.6H322.8L322.9 26ZM327.1 7.6H329.4V10.8H329.5C330.5 8.5 332.8 7 335.4 7.1C340.6 7.1 342.1 9.8 342.1 14.2V26H339.9V14.5C339.9 11.3 338.9 8.9 335.2 8.9C331.5 8.9 329.5 11.6 329.4 15.2V26H327.1V7.6ZM362.5 26H360.4V22.5H360.3C359.3 24.9 356.4 26.5 353.7 26.5C348.1 26.5 345.4 22 345.4 16.8C345.4 11.6 348.1 7.1 353.7 7.1C356.5 7 359 8.6 360.1 11.1H360.2V0.5H362.4V26H362.5ZM353.8 24.6C358.6 24.6 360.3 20.6 360.3 16.8C360.3 13 358.6 9 353.8 9C349.5 9 347.8 13 347.8 16.9C347.8 20.8 349.5 24.6 353.8 24.6ZM366.5 13.2C366.7 8.9 369.8 7 374 7C377.3 7 380.8 8 380.8 12.9V22.7C380.7 23.4 381.2 24 381.8 24.1C381.9 24.1 382 24.1 382.1 24.1C382.3 24.1 382.6 24 382.8 24V25.9C382.3 26 381.8 26.1 381.3 26C379 26 378.7 24.7 378.7 22.8H378.6C377 25.2 375.4 26.5 371.9 26.5C368.4 26.5 365.7 24.8 365.7 21.1C365.7 15.9 370.7 15.7 375.6 15.2C377.5 15 378.5 14.7 378.5 12.7C378.5 9.7 376.3 8.9 373.7 8.9C371.1 8.9 368.8 10.2 368.8 13.2H366.5ZM378.5 15.9C378.1 16.4 377.1 16.6 376.5 16.7C372.7 17.4 367.9 17.3 367.9 20.9C368 23 369.8 24.6 371.9 24.5H372C375.4 24.5 378.5 22.3 378.4 18.7V15.9H378.5ZM398.3 13.4C397.6 10.6 396 9 393 9C388.7 9 386.5 12.9 386.5 16.9C386.5 20.9 388.6 24.7 393 24.7C395.9 24.6 398.2 22.3 398.4 19.5H400.7C400.1 23.9 397.2 26.6 393.1 26.6C387.5 26.6 384.4 22.1 384.4 16.9C384.4 11.7 387.5 7.2 393.1 7.2C397 7.2 400.1 9.3 400.6 13.5L398.3 13.4ZM403.8 0.5H406.1V4.1H403.8V0.5ZM403.8 7.6H406.1V26H403.8V7.6ZM426.8 16.8C426.8 22.1 423.7 26.5 418.1 26.5C412.5 26.5 409.4 22 409.4 16.8C409.4 11.6 412.5 7.1 418.1 7.1C423.7 7.1 426.9 11.5 426.8 16.8ZM411.6 16.8C411.6 20.7 413.7 24.6 418.1 24.6C422.5 24.6 424.6 20.7 424.6 16.8C424.6 12.9 422.5 9 418.1 9C413.7 9 411.7 12.9 411.6 16.8ZM417.9 5H416L419.8 0H422.6L417.9 5ZM430.2 7.6H432.4V10.8H432.5C433.5 8.5 435.9 7 438.4 7.1C443.6 7.1 445.1 9.8 445.1 14.2V26H442.8V14.5C442.8 11.3 441.8 8.9 438.1 8.9C434.4 8.9 432.4 11.6 432.3 15.2V26H430.1V7.6H430.2ZM311.8 62.8H309.7V59.5H309.6C308.4 61.9 305.9 63.4 303.2 63.3C298.6 63.3 296.7 60.6 296.7 56.3V44.3H299V56.3C299.1 59.6 300.4 61.4 303.9 61.4C307.8 61.4 309.4 57.8 309.4 54V44.4H311.7L311.8 62.8ZM316 44.4H318.2V47.6H318.3C319.3 45.3 321.6 43.8 324.2 43.9C329.4 43.9 330.9 46.6 330.9 51V62.8H328.6V51.3C328.6 48.1 327.6 45.7 323.9 45.7C320.2 45.7 318.2 48.4 318.1 52V62.7H316V44.4ZM335.2 37.3H337.4V40.9H335.2V37.3ZM335.2 44.4H337.4V62.8H335.2V44.4ZM339.7 44.4H342.2L348 60.6L353.7 44.4H356L349.1 62.8H346.7L339.7 44.4ZM359.6 54.2C359.6 57.5 361.4 61.4 365.7 61.4C369 61.4 370.8 59.5 371.5 56.7H373.7C372.7 60.9 370.3 63.3 365.7 63.3C359.8 63.3 357.4 58.8 357.4 53.6C357.4 48.8 359.9 43.9 365.7 43.9C371.5 43.9 374 49.1 373.8 54.2H359.6ZM371.5 52.3C371.4 48.9 369.3 45.7 365.6 45.7C361.9 45.7 359.9 48.9 359.5 52.3H371.5ZM376.8 44.4H378.9V48.7H379C380 45.8 382.9 43.9 386 44.1V46.4C382.5 46.1 379.4 48.7 379.1 52.2C379.1 52.5 379.1 52.8 379.1 53V62.8H376.9L376.8 44.4ZM399 49.8C398.9 47 396.7 45.8 394.2 45.8C392.2 45.8 389.8 46.6 389.8 49C389.8 51 392.1 51.7 393.6 52.1L396.6 52.8C399.2 53.2 401.9 54.7 401.9 57.9C401.9 61.9 397.9 63.4 394.5 63.4C390.2 63.4 387.3 61.4 386.9 56.9H389.2C389.4 59.9 391.6 61.5 394.6 61.5C396.7 61.5 399.6 60.6 399.6 58C399.6 55.9 397.6 55.2 395.6 54.7L392.7 54.1C389.8 53.3 387.6 52.3 387.6 49.2C387.6 45.4 391.3 44 394.5 44C398.2 44 401.1 45.9 401.2 49.9L399 49.8ZM405.2 37.3H407.4V40.9H405.2V37.3ZM405.2 44.4H407.4V62.8H405.2V44.4ZM415.3 44.4H419.1V46.3H415.3V58.7C415.3 60.2 415.5 61 417.1 61.1C417.7 61.1 418.4 61.1 419 61V62.9C418.3 62.9 417.7 63 417 63C414 63 413 62 413 58.9V46.3H409.8V44.4H413V38.9H415.2L415.3 44.4ZM422.1 50C422.3 45.7 425.3 43.8 429.6 43.8C432.9 43.8 436.4 44.8 436.4 49.7V59.5C436.3 60.2 436.8 60.8 437.4 60.8C437.5 60.8 437.6 60.8 437.7 60.8C437.9 60.8 438.2 60.7 438.4 60.7V62.6C437.9 62.7 437.4 62.8 436.9 62.7C434.6 62.7 434.3 61.4 434.3 59.5H434.2C432.6 61.9 431 63.3 427.5 63.3C424 63.3 421.3 61.6 421.3 57.9C421.3 52.7 426.3 52.6 431.2 52C433.1 51.8 434.1 51.5 434.1 49.5C434.1 46.5 431.9 45.7 429.3 45.7C426.5 45.7 424.4 47 424.4 50H422.1ZM434.1 52.7H434C433.7 53.2 432.7 53.4 432.1 53.5C428.3 54.2 423.5 54.1 423.5 57.7C423.6 59.8 425.4 61.4 427.5 61.3H427.6C431 61.3 434.1 59.1 434 55.5L434.1 52.7ZM440.8 44.4H442.9V48.7H443C444 45.8 446.9 43.9 450 44.1V46.4C446.5 46.1 443.5 48.7 443.2 52.2C443.2 52.5 443.2 52.7 443.2 53V62.8H440.9L440.8 44.4ZM452.1 37.3H454.3V40.9H452L452.1 37.3ZM452.1 44.4H454.3V62.8H452L452.1 44.4ZM458.4 50C458.6 45.7 461.7 43.8 465.9 43.8C469.1 43.8 472.7 44.8 472.7 49.7V59.5C472.6 60.2 473 60.8 473.7 60.9C473.8 60.9 473.9 60.9 474 60.9C474.2 60.9 474.5 60.8 474.7 60.8V62.7C474.2 62.8 473.7 62.9 473.2 62.8C470.9 62.8 470.6 61.5 470.6 59.6H470.5C468.9 62 467.3 63.4 463.8 63.4C460.3 63.4 457.6 61.7 457.6 58C457.6 52.8 462.6 52.7 467.5 52.1C469.4 51.9 470.4 51.6 470.4 49.6C470.4 46.6 468.2 45.8 465.6 45.8C463 45.8 460.7 47 460.7 50H458.4ZM470.4 52.7C470 53.2 469 53.4 468.4 53.5C464.6 54.2 459.9 54.1 459.9 57.7C460 59.8 461.8 61.4 463.9 61.3H464C467.4 61.3 470.5 59.1 470.4 55.5V52.7Z" fill="white"/>
<path d="M34 23.9C40.3 23.9 45.3 29 45.3 35.2C45.3 41.5 40.2 46.5 34 46.5C27.7 46.5 22.7 41.4 22.7 35.2C22.7 28.9 27.7 23.9 34 23.9ZM34 23.9C40.3 23.9 45.3 18.8 45.3 12.6C45.3 6.30001 40.2 1.30001 34 1.30001C27.7 1.30001 22.7 6.40001 22.7 12.6C22.7 18.8 27.7 23.9 34 23.9ZM68 12.5C68 6.20001 62.9 1.20001 56.7 1.20001C50.4 1.20001 45.4 6.30001 45.4 12.5C45.4 18.8 50.5 23.8 56.7 23.8C62.9 23.9 68 18.8 68 12.5ZM11.3 23.9C5.1 23.9 0 28.9 0 35.2C0 41.5 5.1 46.5 11.3 46.5C17.6 46.5 22.6 41.4 22.6 35.2C22.7 28.9 17.6 23.9 11.3 23.9ZM34 69.2C40.3 69.2 45.3 64.1 45.3 57.9C45.3 51.6 40.2 46.6 34 46.6C27.7 46.6 22.7 51.7 22.7 57.9C22.7 64.1 27.7 69.2 34 69.2ZM68 57.9C68 51.6 62.9 46.6 56.7 46.6C50.4 46.6 45.4 51.7 45.4 57.9C45.4 64.2 50.5 69.2 56.7 69.2C62.9 69.2 68 64.1 68 57.9ZM271.9 69.3H274.2V1.30001H271.9V69.3Z" fill="#F7501C"/>
</svg>
